P2
# CREATOR: GIMP PNM Filter Version 1.1
71 51
255
255
255
255
255
255
255
255
255
255
255
255
255
255
255
255
255
255
255
255
255
255
255
255
255
255
255
255
255
255
255
255
255
255
255
255
255
255
255
255
255
255
255
255
255
255
255
255
255
255
255
255
255
255
255
255
255
255
255
255
255
255
255
255
255
255
255
255
255
255
255
255
255
0
0
0
0
0
0
0
255
0
0
0
0
0
0
0
0
0
0
0
255
0
0
0
0
0
0
0
255
0
0
0
0
0
0
0
0
0
255
0
0
0
0
0
0
0
0
0
0
0
0
0
0
0
0
0
0
0
0
0
0
0
0
0
0
0
255
0
0
0
255
255
255
255
255
255
255
255
0
255
0
255
255
255
255
255
255
255
255
255
0
255
0
255
255
255
255
255
0
255
0
255
255
255
255
255
255
255
0
255
255
255
0
255
255
255
255
255
255
255
255
255
255
255
255
255
255
255
255
255
255
255
255
255
255
255
0
255
255
255
0
255
255
0
0
0
0
0
255
0
0
0
255
0
0
0
0
0
0
0
255
0
255
0
255
0
0
0
255
0
0
0
255
0
0
0
255
0
0
0
255
0
0
0
255
0
0
0
0
0
0
0
255
0
0
0
0
0
0
0
0
0
0
0
255
0
0
0
255
0
0
0
255
255
255
255
0
255
255
255
255
255
255
255
255
255
0
255
0
255
255
255
0
255
0
255
255
255
0
255
255
255
255
255
0
255
0
255
0
255
255
255
0
255
255
255
0
255
255
255
255
255
0
255
255
255
0
255
0
255
255
255
255
255
0
255
0
255
255
255
0
255
0
255
255
0
0
0
255
0
0
0
0
0
158
0
0
0
255
0
255
0
0
0
255
0
0
0
255
0
0
0
255
0
0
0
255
0
255
0
255
0
0
0
255
0
0
0
255
0
0
0
255
0
0
0
255
0
255
0
255
0
0
0
255
0
255
0
0
0
0
0
255
0
255
255
0
255
0
255
0
255
0
255
255
255
255
255
255
255
255
255
0
255
255
255
255
255
0
255
0
255
0
255
255
255
0
255
0
255
0
255
0
255
255
255
0
255
255
255
0
255
255
255
255
255
0
255
0
255
0
255
0
255
0
255
255
255
255
255
255
255
255
255
0
255
255
0
255
0
255
0
255
0
255
0
0
0
150
0
0
0
255
0
0
0
0
0
255
0
255
0
255
0
0
0
255
0
255
0
255
0
0
0
255
0
0
0
255
0
0
0
0
0
255
0
0
0
255
0
255
0
255
0
255
0
0
0
0
0
0
0
0
0
255
0
255
255
0
255
255
255
0
255
0
255
0
255
255
255
255
255
0
255
255
255
255
255
0
255
0
255
0
255
255
255
0
255
0
255
0
255
255
255
255
255
255
255
0
255
255
255
255
255
0
255
0
255
255
255
0
255
255
255
0
255
255
255
255
255
255
255
255
255
0
255
0
255
255
0
0
0
0
0
255
0
255
0
255
0
0
0
0
0
0
0
255
0
255
0
0
0
255
0
255
0
255
0
0
0
255
0
255
0
0
0
0
0
255
0
0
0
0
0
255
0
0
0
255
0
0
0
0
0
255
0
0
0
0
0
0
0
255
0
0
0
255
0
255
255
0
255
255
255
255
255
0
255
0
255
0
255
255
255
255
255
0
255
0
255
255
255
255
255
0
255
0
255
255
255
255
255
0
255
0
255
255
255
0
255
0
255
255
255
0
255
0
255
255
255
255
255
255
255
0
255
255
255
255
255
255
255
0
255
0
255
255
255
0
255
255
154
0
0
0
0
255
0
0
0
255
0
255
0
0
0
255
0
0
0
0
0
0
0
0
0
255
0
255
0
0
0
0
0
255
0
0
0
255
0
255
0
255
0
0
0
255
0
0
0
0
0
0
0
255
0
0
0
0
0
0
0
255
0
255
0
0
0
255
0
255
255
255
255
255
255
0
255
255
255
255
255
0
255
0
255
255
255
255
255
0
255
255
255
255
255
255
255
0
255
0
255
255
255
255
255
255
255
0
255
0
255
255
255
0
255
255
255
255
255
255
255
255
255
0
255
0
255
0
255
255
255
255
255
0
255
255
255
0
255
0
255
255
0
0
0
255
0
0
0
0
0
255
0
255
0
0
0
255
0
0
0
255
0
0
0
0
0
255
0
255
0
0
0
0
0
255
0
0
0
255
0
0
0
255
0
255
0
0
0
0
0
0
0
255
0
0
0
255
0
255
0
0
0
0
0
255
0
255
0
255
0
255
255
0
255
255
255
0
255
255
255
255
255
0
255
255
255
0
255
0
255
255
255
0
255
255
255
0
255
0
255
255
255
255
255
0
255
0
255
255
255
255
255
0
255
0
255
0
255
255
255
255
255
0
255
255
255
255
255
0
255
0
255
255
255
255
255
0
255
0
255
0
255
255
0
255
0
0
0
255
0
0
0
255
0
0
0
255
0
255
0
0
0
255
0
255
0
0
0
255
0
0
0
0
0
255
0
0
0
255
0
255
0
0
0
255
0
255
0
255
0
0
0
255
0
255
0
255
0
0
0
255
0
0
0
0
0
0
0
255
0
0
0
255
255
0
255
0
255
255
255
0
255
0
255
0
255
0
255
0
255
0
255
255
255
0
255
0
255
255
255
0
255
0
255
255
255
0
255
0
255
0
255
0
255
255
255
0
255
0
255
0
255
255
255
0
255
0
255
0
255
255
255
255
255
255
255
255
255
0
255
255
255
255
255
255
0
0
0
255
0
0
0
255
0
255
0
0
0
255
0
0
0
255
0
0
0
255
0
0
0
255
0
255
0
0
0
255
0
0
0
255
0
255
0
0
0
0
0
255
0
255
0
0
0
0
0
255
0
255
0
0
0
255
0
0
0
255
0
255
0
255
0
0
0
255
255
0
255
255
255
0
255
255
255
0
255
0
255
0
255
255
255
255
255
0
255
255
255
255
255
0
255
255
255
255
255
0
255
255
255
255
255
0
255
255
255
255
255
255
255
0
255
255
255
0
255
255
255
0
255
255
255
0
255
0
255
0
255
0
255
0
255
255
255
0
255
255
0
255
0
0
0
255
0
255
0
255
0
255
0
0
0
0
0
0
0
255
0
0
0
255
0
255
0
0
0
255
0
0
0
0
0
0
0
255
0
0
0
255
0
0
0
0
0
255
0
0
0
0
0
0
0
255
0
255
0
255
0
0
0
255
0
0
0
0
0
255
255
255
255
0
255
255
255
0
255
0
255
0
255
255
255
255
255
0
255
255
255
0
255
0
255
0
255
0
255
0
255
0
255
255
255
255
255
0
255
0
255
255
255
0
255
255
255
0
255
255
255
255
255
255
255
255
255
0
255
0
255
255
255
0
255
255
255
255
255
0
255
255
0
0
0
255
0
255
0
0
0
255
0
255
0
0
0
255
0
255
0
0
0
255
0
0
0
255
0
255
0
0
0
255
0
0
0
255
0
0
0
255
0
0
0
255
0
255
0
0
0
0
0
255
0
0
0
255
0
255
0
255
0
255
0
0
0
0
0
255
0
255
255
0
255
255
255
0
255
0
255
255
255
255
255
0
255
0
255
255
255
0
255
255
255
255
255
255
255
0
255
255
255
255
255
255
255
0
255
255
255
0
255
0
255
255
255
0
255
255
255
255
255
0
255
0
255
0
255
0
255
0
255
0
255
255
255
0
255
255
255
0
255
255
0
255
0
0
0
255
0
0
0
255
0
0
0
255
0
0
0
0
0
255
0
0
0
255
0
0
0
255
0
0
0
0
0
0
0
0
0
255
0
255
0
0
0
0
0
0
0
255
0
0
0
255
0
255
0
0
0
255
0
255
0
0
0
255
0
255
0
0
0
255
255
0
255
0
255
0
255
255
255
0
255
0
255
255
255
255
255
255
255
255
255
0
255
0
255
0
255
255
255
0
255
255
255
255
255
255
255
0
255
0
255
255
255
255
255
255
255
0
255
0
255
255
255
0
255
255
255
255
255
0
255
0
255
0
255
0
255
0
255
255
255
255
0
255
0
255
0
255
0
255
0
0
0
255
0
0
0
255
0
0
0
0
0
255
0
255
0
255
0
0
0
255
0
0
0
0
0
255
0
255
0
255
0
0
0
0
0
255
0
255
0
0
0
0
0
255
0
0
0
0
0
255
0
255
0
255
0
255
0
0
0
255
255
0
255
0
255
0
255
0
255
255
255
255
255
0
255
0
255
0
255
255
255
255
255
0
255
0
255
0
255
255
255
0
255
255
255
255
255
0
255
0
255
255
255
0
255
0
255
0
255
255
255
255
255
255
255
255
255
0
255
255
255
0
255
255
255
0
255
255
255
0
255
255
0
255
0
255
0
255
0
0
0
0
0
0
0
255
0
255
0
0
0
0
0
255
0
0
0
255
0
255
0
0
0
0
0
0
0
0
0
255
0
0
0
255
0
255
0
255
0
0
0
0
0
0
0
0
0
255
0
255
0
0
0
0
0
0
0
255
0
255
0
255
255
0
255
0
255
0
255
0
255
255
255
255
255
255
255
0
255
0
255
255
255
0
255
255
255
255
255
0
255
255
255
255
255
255
255
255
255
255
255
255
255
0
255
0
255
255
255
255
255
255
255
255
255
255
255
0
255
0
255
255
255
0
255
255
255
255
255
0
255
0
255
255
0
255
0
255
0
0
0
255
0
0
0
0
0
255
0
255
0
0
0
255
0
255
0
0
0
255
0
0
0
255
0
0
0
0
0
0
0
0
0
0
0
255
0
0
0
0
0
0
0
255
0
0
0
0
0
255
0
0
0
255
0
0
0
0
0
0
0
255
0
255
255
0
255
0
255
255
255
255
255
0
255
0
255
255
255
0
255
255
255
0
255
0
255
0
255
255
255
0
0
0
0
0
0
0
255
255
255
255
255
255
255
0
255
255
255
255
255
0
255
255
255
0
255
255
255
255
255
255
255
0
255
255
255
0
255
255
255
255
255
0
255
255
0
255
0
255
0
0
0
0
0
255
0
0
0
0
0
0
0
255
0
255
0
255
0
0
0
255
0
0
0
0
0
0
0
0
0
255
0
0
0
255
0
0
0
0
0
255
0
0
0
255
0
0
0
0
0
0
0
255
0
255
0
0
0
255
0
0
0
255
0
255
255
0
255
0
255
255
255
255
255
255
255
255
255
255
255
255
255
0
255
255
255
0
255
255
255
0
255
0
0
0
0
0
0
0
0
0
0
0
255
0
255
255
255
255
255
0
255
255
255
0
255
255
255
255
255
255
255
0
255
0
255
0
255
255
255
0
255
0
255
0
255
255
0
255
0
255
0
0
0
0
0
0
0
0
0
0
0
255
0
0
0
255
0
255
0
0
0
255
0
0
0
0
192
0
0
0
0
255
0
255
0
0
0
255
0
255
0
255
0
0
0
0
0
0
0
255
0
255
0
255
0
255
0
255
0
255
0
255
0
0
0
255
255
0
255
0
255
0
255
255
0
255
255
255
255
255
255
0
255
255
255
0
255
0
255
0
255
255
255
255
255
0
0
0
0
0
255
255
255
0
255
255
255
0
255
0
255
0
255
0
255
255
255
255
255
0
255
0
255
0
255
0
255
0
255
0
255
0
255
255
255
255
255
255
0
255
0
0
0
255
0
0
0
0
0
255
0
0
0
255
0
0
0
0
0
255
0
0
0
0
0
255
0
0
0
0
0
255
0
0
0
0
0
255
0
255
0
0
0
255
0
255
0
0
0
0
0
255
0
255
0
0
0
255
0
0
0
255
0
255
0
0
0
255
255
0
255
0
255
255
255
0
255
255
255
255
255
0
255
255
255
255
255
255
255
255
255
255
255
0
255
0
255
0
255
255
255
255
255
0
255
255
255
255
255
0
255
0
255
255
255
0
255
0
255
255
255
255
255
0
255
255
255
255
255
0
255
255
255
0
255
0
255
255
255
255
0
255
0
0
0
0
0
255
0
0
0
255
0
0
0
0
0
0
0
0
0
0
0
255
0
255
0
0
0
0
0
255
0
0
0
0
0
255
0
0
0
255
0
0
0
0
0
255
0
0
0
0
0
0
0
0
0
255
0
0
0
255
0
0
0
255
0
0
0
255
255
0
255
255
255
255
255
255
255
0
255
0
255
255
255
255
255
255
255
255
255
255
255
0
255
255
255
255
255
255
255
255
255
0
255
255
255
255
255
0
255
255
255
255
255
255
255
255
255
255
255
0
255
255
255
255
255
255
255
0
255
255
255
0
255
255
255
255
255
0
255
255
0
0
0
0
0
255
0
0
0
255
0
0
0
0
0
0
0
0
0
0
0
255
0
0
0
0
0
0
0
0
0
0
0
255
0
0
0
255
0
255
0
0
0
0
0
255
0
0
0
255
0
255
0
0
0
0
0
255
0
255
0
0
0
255
0
0
0
255
0
255
255
0
255
255
255
0
255
0
255
255
255
255
255
255
255
255
255
255
255
0
255
0
255
255
255
255
255
255
255
255
255
255
255
0
255
0
255
0
255
0
255
255
255
0
255
0
255
0
255
255
255
0
255
0
255
255
255
0
255
0
255
0
255
255
255
0
255
0
255
0
255
255
0
255
0
0
0
255
0
255
0
0
0
0
0
255
0
0
0
255
0
255
0
255
0
0
0
0
0
0
0
0
0
255
0
255
0
255
0
0
0
255
0
0
0
255
0
0
0
255
0
0
0
255
0
255
0
0
0
255
0
255
0
0
0
0
0
255
0
0
0
255
255
0
255
0
255
0
255
0
255
255
255
0
255
0
255
0
255
0
255
255
255
0
255
0
255
255
255
255
255
255
255
0
255
255
255
0
255
255
255
255
255
0
255
255
255
255
255
255
255
0
255
255
255
0
255
0
255
255
255
0
255
255
255
255
255
255
255
255
255
0
255
255
0
255
0
255
0
255
0
0
0
255
0
255
0
255
0
255
0
0
0
0
0
255
0
0
0
0
0
0
0
255
0
0
0
255
0
0
0
255
0
0
0
255
0
0
0
0
0
0
0
255
0
0
0
255
0
0
0
255
0
0
0
0
0
255
0
0
0
255
0
255
255
0
255
0
255
255
255
255
255
0
255
0
255
255
255
0
255
255
255
255
255
0
255
255
255
255
255
255
255
0
255
255
255
0
255
255
255
0
255
0
255
255
255
0
255
255
255
255
255
255
255
0
255
255
255
255
255
0
255
255
255
255
255
0
255
0
255
0
255
0
255
255
0
255
0
255
0
0
0
0
0
255
0
255
0
0
0
255
0
0
0
255
0
0
0
255
0
0
0
0
0
0
0
255
0
0
0
255
0
255
0
0
0
0
0
255
0
0
0
255
0
0
0
255
0
0
0
255
0
0
0
0
0
0
0
0
0
255
0
255
0
255
255
255
255
0
255
0
255
255
255
255
255
0
255
0
255
255
255
0
255
255
255
0
255
255
255
0
255
255
255
255
255
255
255
255
255
0
255
0
255
255
255
255
255
255
255
0
255
0
255
0
255
255
255
0
255
0
255
255
255
255
255
255
255
255
255
255
255
255
255
0
255
255
0
0
0
255
0
0
0
0
0
0
0
255
0
255
0
0
0
0
0
0
0
255
0
0
0
255
0
0
0
0
0
0
0
0
0
255
0
0
0
0
0
0
0
0
0
255
0
0
0
0
0
0
0
255
0
0
0
0
158
0
0
0
0
255
0
0
0
255
0
255
255
0
255
255
255
255
255
255
255
255
255
0
255
0
255
255
255
255
255
255
255
255
255
0
255
255
255
0
255
255
255
255
255
255
255
255
255
255
255
255
255
255
255
255
255
255
255
255
255
255
255
255
255
255
255
255
255
255
255
255
255
255
255
255
255
0
255
0
255
0
255
255
0
0
0
0
0
0
0
0
0
0
0
255
0
0
0
0
0
0
0
0
0
0
0
0
0
255
0
0
0
0
0
0
0
0
0
0
0
0
0
0
0
0
0
0
0
0
0
0
0
0
0
0
0
0
0
0
0
0
0
0
0
0
0
0
0
255
0
0
0
255
255
255
255
255
255
255
255
255
255
255
255
255
255
255
255
255
255
255
255
255
255
255
255
255
255
255
255
255
255
255
255
255
255
255
255
255
255
255
255
255
255
255
255
255
255
255
255
255
255
255
255
255
255
255
255
255
255
255
255
255
255
255
255
255
255
255
255
255
255
255
255
