P2
# CREATOR: GIMP PNM Filter Version 1.1
151 51
255
255 255 255 255 255 255 255 255 255 255 255 255 255 255 255 255 255 255 255 255 255 255 255 255 255 255 255 255 255 255 255 255 255 255 255 255 255 255 255 255 255 255 255 255 255 255 255 255 255 255 255 255 255 255 255 255 255 255 255 255 255 255 255 255 255 255 255 255 255 255 255 255 255 255 255 255 255 255 255 255 255 255 255 255 255 255 255 255 255 255 255 255 255 255 255 255 255 255 255 255 255 255 255 255 255 255 255 255 255 255 255 255 255 255 255 255 255 255 255 255 255 255 255 255 255 255 255 255 255 255 255 255 255 255 255 255 255 255 255 255 255 255 255 255 255 255 255 255 255 255 255
255 0 0 0 0 0 0 0 0 0 0 0 0 0 0 0 0 0 0 0 0 0 0 0 0 0 0 0 0 0 0 0 0 0 0 0 255 0 0 0 0 0 0 0 0 0 0 0 0 0 0 0 0 0 255 0 0 0 255 0 0 0 0 0 255 0 0 0 0 0 0 0 255 0 0 0 0 0 0 0 255 0 0 0 255 0 0 0 0 0 0 0 0 0 0 0 0 0 0 0 255 0 0 0 0 0 0 0 0 0 0 0 0 0 0 0 0 0 255 0 0 0 0 0 0 0 0 0 0 0 0 0 0 0 255 0 0 0 0 0 255 0 0 0 0 0 0 0 0 0 255
255 255 255 255 255 255 255 255 255 255 255 255 255 255 255 255 255 255 255 255 255 255 255 255 255 255 255 255 255 255 255 255 255 255 255 0 255 255 255 0 255 255 255 255 255 255 255 255 255 255 255 255 255 0 255 0 255 255 255 0 255 0 255 255 255 0 255 0 255 255 255 0 255 0 255 255 255 255 255 0 255 0 255 255 255 0 255 255 255 255 255 255 255 0 255 255 255 255 255 0 255 255 255 255 255 0 255 255 255 255 255 255 255 255 255 255 255 0 255 255 255 255 255 0 255 255 255 255 255 255 255 255 255 0 255 0 255 255 255 0 255 0 255 255 255 255 255 255 255 0 255
255 0 0 0 0 0 255 0 0 0 0 0 0 0 0 0 0 0 0 0 0 0 0 0 0 0 0 0 0 0 0 0 255 0 255 0 0 0 255 0 255 0 0 0 255 0 0 0 0 0 0 0 255 0 255 0 0 0 0 0 255 0 0 0 0 0 255 0 0 0 255 0 0 0 255 0 0 0 255 0 0 0 255 0 0 0 255 0 255 0 0 0 255 0 0 0 255 0 255 0 0 0 0 0 255 0 0 0 255 0 0 0 0 0 0 0 255 0 0 0 0 0 255 0 255 0 0 0 0 0 0 0 255 0 0 0 255 0 0 0 255 0 255 0 0 0 0 0 255 0 255
255 0 255 255 255 0 255 255 255 255 255 255 255 255 255 0 255 255 255 255 255 255 255 255 255 255 255 255 255 255 255 0 255 0 255 255 255 0 255 0 255 0 255 0 255 255 255 0 255 255 255 0 255 0 255 255 255 255 255 0 255 255 255 255 255 255 255 255 255 0 255 255 255 255 255 0 255 255 255 255 255 0 255 0 255 255 255 0 255 0 255 0 255 255 255 0 255 0 255 255 255 255 255 0 255 255 255 0 255 0 255 0 255 255 255 0 255 255 255 255 255 0 255 0 255 0 255 0 255 255 255 255 255 255 255 255 255 0 255 255 255 0 255 255 255 0 255 0 255 0 255
255 0 0 0 255 0 0 0 0 0 0 0 0 0 0 0 255 0 0 0 0 0 255 0 0 0 0 0 0 0 255 0 0 0 0 0 255 0 0 0 255 0 255 0 0 0 0 0 255 0 255 0 255 0 0 0 0 0 255 0 0 0 255 0 0 0 0 0 255 0 255 0 0 0 0 0 0 0 0 0 255 0 255 0 0 0 0 0 255 0 255 0 0 0 0 0 255 0 0 0 0 0 255 0 0 0 0 0 255 0 255 0 255 0 255 0 0 0 0 0 255 0 255 0 255 0 255 0 0 0 0 0 0 0 0 0 255 0 0 0 0 0 255 0 0 0 255 0 255 0 255
255 255 255 0 255 255 255 255 255 255 255 255 255 255 255 255 255 0 255 255 255 0 255 255 255 255 255 0 255 255 255 255 255 255 255 0 255 255 255 255 255 0 255 255 255 255 255 255 255 0 255 0 255 255 255 255 255 0 255 255 255 255 255 0 255 255 255 0 255 0 255 255 255 255 255 255 255 255 255 0 255 0 255 255 255 255 255 0 255 0 255 255 255 255 255 255 255 255 255 255 255 0 255 255 255 255 255 255 255 255 255 0 255 0 255 255 255 255 255 0 255 0 255 0 255 0 255 255 255 255 255 0 255 255 255 0 255 255 255 255 255 255 255 0 255 255 255 255 255 0 255
255 0 0 0 255 0 0 0 0 0 0 0 255 0 0 0 0 0 0 0 255 0 0 0 0 0 0 0 255 0 0 0 0 0 255 0 255 0 0 0 0 0 255 0 0 0 0 0 255 0 0 0 255 0 0 0 255 0 0 0 0 0 0 0 255 0 0 0 255 0 0 0 0 0 0 0 0 0 255 0 0 0 0 0 0 0 255 0 255 0 0 0 255 0 0 0 0 0 0 0 255 0 0 0 255 0 0 0 0 0 0 0 255 0 0 0 0 0 255 0 255 0 0 0 255 0 255 0 255 0 0 0 255 0 255 0 0 0 0 0 255 0 0 0 0 0 255 0 0 0 255
255 0 255 255 255 255 255 0 255 0 255 255 255 0 255 255 255 255 255 0 255 255 255 255 255 255 255 0 255 0 255 0 255 255 255 0 255 0 255 255 255 255 255 255 255 0 255 255 255 0 255 255 255 0 255 0 255 255 255 255 255 255 255 255 255 0 255 255 255 255 255 255 255 255 255 0 255 0 255 255 255 255 255 255 255 255 255 0 255 255 255 0 255 0 255 255 255 255 255 0 255 0 255 0 255 255 255 0 255 255 255 255 255 0 255 255 255 0 255 0 255 255 255 255 255 0 255 0 255 0 255 255 255 0 255 255 255 255 255 0 255 0 255 255 255 0 255 0 255 255 255
255 0 0 0 255 0 0 0 255 0 255 0 0 0 0 0 255 0 0 0 255 0 0 0 0 0 0 0 255 0 255 0 0 0 0 0 255 0 255 0 0 0 0 0 255 0 0 0 255 0 255 0 0 0 255 0 0 0 0 0 0 0 0 0 255 0 0 0 0 0 255 0 0 0 255 0 255 0 0 0 0 0 0 0 0 0 0 0 255 0 0 0 255 0 255 0 0 0 255 0 0 0 255 0 0 0 255 0 255 0 0 0 0 0 255 0 255 0 255 0 255 0 0 0 255 0 0 0 255 0 0 0 255 0 0 0 0 0 255 0 255 0 255 0 255 0 0 0 255 0 255
255 0 255 0 255 0 255 255 255 0 255 0 255 255 255 255 255 0 255 255 255 0 255 255 255 255 255 255 255 0 255 255 255 255 255 255 255 0 255 0 255 255 255 0 255 255 255 0 255 0 255 0 255 255 255 255 255 255 255 255 255 255 255 0 255 255 255 255 255 0 255 0 255 0 255 255 255 0 255 255 255 255 255 255 255 255 255 255 255 0 255 255 255 0 255 0 255 0 255 255 255 255 255 255 255 0 255 0 255 0 255 255 255 255 255 0 255 0 255 0 255 0 255 0 255 255 255 255 255 255 255 0 255 255 255 0 255 255 255 0 255 0 255 0 255 255 255 255 255 0 255
255 0 255 0 255 0 0 0 255 0 255 0 0 0 255 0 0 0 255 0 255 0 255 0 0 0 0 0 0 0 255 0 0 0 255 0 0 0 0 0 255 0 0 0 255 0 0 0 255 0 0 0 255 0 0 0 0 0 255 0 0 0 255 0 255 0 0 0 255 0 255 0 255 0 0 0 255 0 0 0 0 0 255 0 0 0 0 0 255 0 0 0 255 0 255 0 255 0 255 0 0 0 0 0 255 0 0 0 255 0 255 0 0 0 0 0 0 0 255 0 0 0 255 0 0 0 0 0 0 0 255 0 0 0 255 0 0 0 0 0 255 0 0 0 255 0 0 0 0 0 255
255 0 255 0 255 255 255 0 255 0 255 255 255 0 255 0 255 255 255 0 255 0 255 0 255 255 255 255 255 255 255 0 255 0 255 255 255 255 255 255 255 0 255 255 255 0 255 0 255 255 255 255 255 255 255 0 255 0 255 0 255 0 255 0 255 255 255 0 255 0 255 0 255 255 255 0 255 255 255 0 255 255 255 0 255 255 255 0 255 255 255 0 255 0 255 0 255 0 255 255 255 0 255 255 255 255 255 255 255 0 255 255 255 255 255 255 255 0 255 255 255 255 255 255 255 255 255 255 255 0 255 255 255 0 255 0 255 255 255 255 255 255 255 0 255 255 255 255 255 0 255
255 0 255 0 0 0 255 0 255 0 255 0 0 0 255 0 0 0 255 0 0 0 255 0 255 0 0 0 0 0 0 0 255 0 0 0 0 0 0 0 0 0 255 0 0 0 255 0 0 0 0 0 0 0 0 0 255 0 255 0 255 0 0 0 255 0 0 0 255 0 255 0 255 0 0 0 0 0 255 0 255 0 0 0 255 0 255 0 0 0 0 0 255 0 0 0 255 0 0 0 255 0 0 0 0 0 0 0 255 0 0 0 0 0 0 0 255 0 0 0 0 0 0 0 0 0 0 0 255 0 0 0 255 0 255 0 255 0 0 0 255 0 0 0 255 0 0 0 255 0 255
255 0 255 255 255 0 255 0 255 255 255 0 255 255 255 255 255 0 255 0 255 255 255 0 255 255 255 255 255 255 255 0 255 255 255 255 255 255 255 255 255 255 255 255 255 0 255 255 255 255 255 255 255 255 255 0 255 255 255 0 255 255 255 255 255 0 255 0 255 0 255 0 255 255 255 255 255 0 255 255 255 0 255 255 255 0 255 255 255 255 255 255 255 255 255 255 255 0 255 0 255 0 255 0 255 255 255 0 255 255 255 0 255 255 255 0 255 255 255 255 255 255 255 255 255 255 255 0 255 255 255 0 255 0 255 255 255 0 255 0 255 0 255 255 255 0 255 0 255 0 255
255 0 0 0 255 0 255 0 0 0 0 0 255 0 0 0 0 0 255 0 0 0 255 0 0 0 0 0 0 0 255 0 0 0 0 0 0 0 255 0 0 0 0 0 255 0 255 0 0 0 0 0 0 0 255 0 255 0 0 0 255 0 0 0 0 0 255 0 255 0 255 0 0 0 255 0 255 0 255 0 0 0 255 0 0 0 0 0 255 0 0 0 0 0 0 0 255 0 255 0 255 0 255 0 0 0 255 0 0 0 255 0 0 0 255 0 0 0 0 0 0 0 255 0 0 0 255 0 255 0 0 0 255 0 0 0 255 0 255 0 0 0 255 0 0 0 255 0 255 0 255
255 255 255 0 255 0 255 255 255 255 255 255 255 0 255 255 255 255 255 255 255 0 255 255 255 255 255 255 255 0 255 255 255 255 255 255 255 0 255 0 255 255 255 0 255 0 255 0 255 255 255 255 255 255 255 0 255 0 255 255 255 255 255 0 255 0 255 255 255 0 255 255 255 0 255 0 255 0 255 0 255 255 255 255 255 0 255 0 255 0 255 0 255 255 255 0 255 255 255 0 255 0 255 255 255 0 255 255 255 0 255 255 255 255 255 0 255 255 255 255 255 0 255 0 255 0 255 0 255 0 255 255 255 255 255 0 255 0 255 255 255 255 255 0 255 255 255 0 255 0 255
255 0 255 0 255 0 0 0 0 0 255 0 0 0 255 0 0 0 0 0 255 0 0 0 0 0 255 0 150 0 255 0 0 0 0 0 255 0 255 0 0 0 255 0 0 0 255 0 255 0 0 0 0 0 255 0 255 0 0 0 0 0 255 0 255 0 255 0 0 0 255 0 0 0 255 0 255 0 255 0 255 0 0 0 255 0 255 0 0 0 255 0 255 0 255 0 0 0 0 0 255 0 255 0 0 0 255 0 255 0 0 0 0 0 255 0 255 0 0 0 255 0 255 0 255 0 255 0 255 0 0 0 0 0 255 0 255 0 255 0 0 0 0 0 255 0 255 0 255 0 255
255 0 255 0 255 255 255 255 255 0 255 0 255 255 255 0 255 255 255 255 255 255 255 255 255 0 255 0 255 255 255 0 255 255 255 0 255 0 255 255 255 0 255 255 255 255 255 0 255 0 255 255 255 0 255 0 255 255 255 255 255 0 255 0 255 0 255 0 255 255 255 0 255 255 255 0 255 0 255 0 255 0 255 0 255 255 255 255 255 255 255 0 255 0 255 255 255 255 255 255 255 255 255 0 255 255 255 0 255 255 255 255 255 0 255 255 255 0 255 0 255 0 255 0 255 0 255 0 255 255 255 255 255 0 255 0 255 0 255 255 255 0 255 255 255 0 255 0 255 0 255
255 0 255 0 0 0 255 0 0 0 255 0 0 0 255 0 0 0 0 0 0 0 255 0 0 0 255 0 0 0 0 0 255 0 0 0 255 0 255 0 0 0 255 0 0 0 0 0 255 0 0 0 255 0 0 0 255 0 0 0 255 0 0 0 255 0 255 0 255 0 0 0 255 0 0 0 255 0 255 0 0 0 255 0 0 0 0 0 0 0 255 0 255 0 0 0 255 0 0 0 0 0 255 0 255 0 0 0 0 0 0 0 255 0 0 0 0 0 255 0 0 0 255 0 255 0 0 0 0 0 0 0 255 0 255 0 255 0 0 0 255 0 255 0 0 0 255 0 255 0 255
255 0 255 255 255 0 255 0 255 255 255 255 255 0 255 0 255 255 255 0 255 0 255 0 255 255 255 255 255 255 255 255 255 0 255 255 255 0 255 0 255 255 255 0 255 255 255 255 255 255 255 0 255 255 255 255 255 255 255 0 255 255 255 0 255 255 255 0 255 0 255 255 255 0 255 255 255 0 255 255 255 0 255 255 255 255 255 255 255 0 255 0 255 0 255 0 255 255 255 0 255 0 255 0 255 0 255 255 255 255 255 0 255 255 255 255 255 255 255 255 255 255 255 0 255 255 255 255 255 255 255 255 255 0 255 0 255 255 255 0 255 0 255 0 255 0 255 0 255 0 255
255 0 255 0 0 0 255 0 0 0 0 0 255 0 255 0 0 0 255 0 255 0 255 0 0 0 0 0 255 0 0 0 255 0 0 0 255 0 255 0 255 0 0 0 0 0 0 0 0 0 0 0 0 0 0 0 255 0 0 0 0 0 255 0 255 0 0 0 255 0 255 0 0 0 0 0 255 0 0 0 255 0 255 0 0 0 0 0 0 0 255 0 255 0 255 0 0 0 0 0 255 0 0 0 255 0 255 0 0 0 255 0 0 0 255 0 0 0 0 0 255 0 0 0 255 0 0 0 255 0 0 0 255 0 255 0 255 0 0 0 255 0 255 0 255 0 255 0 0 0 255
255 0 255 0 255 255 255 255 255 255 255 0 255 0 255 0 255 255 255 0 255 0 255 255 255 255 255 0 255 255 255 0 255 255 255 0 255 0 255 0 255 0 255 255 255 255 255 255 255 255 255 255 255 255 255 0 255 0 255 255 255 0 255 0 255 0 255 255 255 0 255 0 255 255 255 0 255 255 255 0 255 255 255 0 255 255 255 255 255 255 255 0 255 0 255 255 255 255 255 255 255 255 255 255 255 0 255 0 255 0 255 0 255 0 255 0 255 255 255 0 255 0 255 255 255 0 255 0 255 0 255 0 255 0 255 0 255 0 255 255 255 0 255 0 255 255 255 255 255 0 255
255 0 0 0 0 0 255 0 0 0 255 0 255 0 255 0 255 0 0 0 255 0 0 0 0 0 255 0 0 0 255 0 255 0 0 0 255 0 255 0 255 0 255 0 0 0 0 0 0 0 0 0 255 0 0 0 0 0 255 0 0 0 255 0 255 0 0 0 0 0 255 0 255 0 0 0 255 0 255 0 255 0 0 0 255 0 0 0 0 0 0 0 255 0 255 0 0 0 0 0 0 0 0 0 255 0 255 0 255 0 0 0 255 0 0 0 255 0 255 0 255 0 0 0 0 0 255 0 255 0 255 0 0 0 255 0 255 0 255 0 0 0 255 0 0 0 0 0 255 0 255
255 0 255 255 255 255 255 0 255 0 255 0 255 0 255 255 255 0 255 255 255 255 255 255 255 0 255 255 255 0 255 158 255 0 255 255 255 0 255 0 255 255 255 0 255 255 255 255 255 255 255 0 255 255 255 255 255 255 255 255 255 255 255 0 255 255 255 255 255 255 255 255 255 0 255 0 255 0 255 0 255 0 255 255 255 0 255 255 255 255 255 255 255 0 255 0 255 255 255 255 255 255 255 0 255 255 255 0 255 255 255 255 255 255 255 255 255 0 255 0 255 255 255 255 255 0 255 255 255 0 255 255 255 255 255 0 255 0 255 255 255 0 255 0 255 255 255 0 255 0 255
255 0 255 0 0 0 255 0 255 0 0 0 255 0 0 0 255 0 255 0 0 0 0 0 0 0 255 0 255 0 0 0 255 0 255 0 0 0 255 0 0 0 255 0 255 0 0 0 0 0 255 0 0 0 0 0 0 0 0 0 0 0 0 0 0 0 0 0 0 0 0 0 255 0 255 0 0 0 255 0 255 0 255 0 0 0 255 0 0 0 255 0 0 0 255 0 255 0 0 0 0 0 255 0 0 0 0 0 255 0 0 0 0 0 0 0 0 0 0 0 255 0 0 0 255 0 255 0 0 0 255 0 0 0 0 0 255 0 0 0 0 0 255 0 255 0 0 0 255 0 255
255 255 255 0 255 0 255 0 255 255 255 255 255 255 255 0 255 0 255 255 255 0 255 255 255 255 255 0 255 255 255 0 255 0 255 0 255 255 255 255 255 0 255 0 255 0 255 255 255 0 255 0 255 255 255 255 255 255 255 255 255 255 255 255 255 255 255 255 255 255 255 0 255 0 255 255 255 0 255 0 255 0 255 0 255 255 255 255 255 0 255 0 255 0 255 0 255 0 255 255 255 0 255 0 255 255 255 255 255 255 255 255 255 255 255 255 255 255 255 255 255 0 255 0 255 0 255 0 255 255 255 255 255 255 255 0 255 255 255 255 255 255 255 255 255 0 255 255 255 0 255
255 0 0 0 255 0 0 0 255 0 0 0 0 0 0 0 255 0 0 0 255 0 0 0 0 0 0 0 255 0 0 0 255 0 255 0 255 0 0 0 0 0 255 0 255 0 255 0 0 0 255 0 0 0 0 0 0 0 255 0 0 0 0 0 255 0 0 0 0 0 255 0 0 0 255 0 255 0 255 0 255 0 255 0 255 0 0 0 255 0 0 0 255 0 255 0 255 0 255 0 255 0 255 0 255 0 0 0 0 0 0 0 0 0 0 0 0 0 0 0 255 0 255 0 0 0 255 0 0 0 255 0 0 0 255 0 0 0 0 0 0 0 0 0 0 0 255 0 0 0 255
255 0 255 255 255 255 255 255 255 255 255 0 255 255 255 255 255 255 255 0 255 255 255 255 255 255 255 255 255 0 255 255 255 0 255 0 255 0 255 255 255 255 255 0 255 0 255 0 255 255 255 255 255 0 255 255 255 255 255 0 255 255 255 0 255 255 255 0 255 0 255 255 255 255 255 0 255 0 255 0 255 0 255 0 255 0 255 0 255 255 255 255 255 0 255 0 255 0 255 0 255 0 255 0 255 0 255 255 255 255 255 255 255 255 255 255 255 255 255 0 255 0 255 255 255 255 255 255 255 0 255 0 255 0 255 255 255 255 255 0 255 255 255 0 255 0 255 0 255 255 255
255 0 255 0 0 0 0 0 0 0 0 0 255 0 0 0 255 0 0 0 255 0 0 0 0 0 0 0 0 0 255 0 0 0 255 0 255 0 255 0 0 0 0 0 255 0 255 0 0 0 0 0 255 0 255 0 0 0 255 0 0 0 255 0 0 0 255 0 255 0 255 0 0 0 0 0 255 0 255 0 0 0 255 0 255 0 255 0 0 0 0 0 255 0 255 0 255 0 255 0 0 0 255 0 255 0 0 0 0 0 0 0 255 0 0 0 0 0 255 0 0 0 0 0 255 0 0 0 255 0 0 0 255 0 0 0 0 0 255 0 255 0 0 0 255 0 255 0 0 0 255
255 0 255 255 255 0 255 255 255 0 255 255 255 0 255 0 255 0 255 0 255 0 255 255 255 255 255 255 255 255 255 0 255 255 255 0 255 0 255 0 255 255 255 255 255 0 255 255 255 255 255 0 255 0 255 0 255 0 255 255 255 0 255 255 255 0 255 0 255 0 255 0 255 0 255 255 255 0 255 255 255 255 255 0 255 0 255 255 255 255 255 0 255 0 255 0 255 0 255 255 255 255 255 0 255 255 255 0 255 255 255 255 255 0 255 255 255 0 255 255 255 255 255 255 255 0 255 0 255 255 255 255 255 255 255 255 255 0 255 255 255 0 255 255 255 0 255 255 255 0 255
255 0 0 0 255 0 255 0 0 0 255 0 0 0 255 0 0 0 255 0 255 0 255 0 0 0 0 0 0 0 255 0 0 0 0 0 255 0 255 0 0 0 255 0 0 0 255 0 0 0 0 0 255 0 255 0 255 0 0 0 0 0 255 0 0 0 255 0 255 0 255 0 255 0 0 0 0 0 255 0 0 0 255 0 0 0 255 0 0 0 255 0 255 0 255 0 255 0 0 0 0 0 0 0 0 0 255 0 255 0 0 0 0 0 255 0 255 0 255 0 0 0 0 0 255 0 255 0 0 0 255 0 0 0 0 0 255 0 0 0 255 0 0 0 255 0 0 0 255 0 255
255 255 255 0 255 255 255 0 255 255 255 0 255 255 255 255 255 255 255 255 255 0 255 255 255 0 255 255 255 0 255 255 255 255 255 255 255 0 255 255 255 0 255 0 255 255 255 0 255 255 255 0 255 255 255 0 255 255 255 255 255 255 255 0 255 255 255 0 255 255 255 0 255 255 255 255 255 255 255 255 255 0 255 0 255 255 255 0 255 255 255 0 255 0 255 0 255 255 255 255 255 255 255 255 255 255 255 0 255 0 255 255 255 255 255 0 255 0 255 0 255 255 255 0 255 0 255 0 255 255 255 0 255 0 255 255 255 255 255 0 255 255 255 0 255 255 255 0 255 0 255
255 0 0 0 255 0 0 0 255 0 255 0 0 0 255 0 0 0 0 0 255 0 0 0 255 0 255 0 255 0 0 0 0 0 255 0 0 0 255 0 0 0 255 0 255 0 0 0 255 0 255 0 255 0 0 0 0 0 255 0 0 0 0 0 255 0 255 0 0 0 0 0 255 0 0 0 255 0 0 0 0 0 255 0 0 0 0 0 255 0 0 0 255 0 255 0 0 0 0 0 255 0 0 0 0 0 0 0 255 0 0 0 0 0 0 0 255 0 0 0 0 0 255 0 0 0 255 0 0 0 0 0 255 0 0 0 255 0 0 0 0 0 0 0 255 0 0 0 255 0 255
255 0 255 255 255 0 255 255 255 0 255 0 255 0 255 0 255 255 255 0 255 255 255 0 255 0 255 0 255 255 255 255 255 0 255 0 255 0 255 0 255 255 255 0 255 0 255 255 255 0 255 0 255 0 255 255 255 255 255 0 255 255 255 255 255 0 255 0 255 255 255 255 255 0 255 0 255 0 255 255 255 0 255 255 255 255 255 0 255 0 255 255 255 0 255 255 255 255 255 0 255 0 255 255 255 255 255 0 255 255 255 255 255 255 255 0 255 255 255 255 255 255 255 255 255 0 255 255 255 255 255 255 255 255 255 0 255 0 255 255 255 255 255 255 255 255 255 255 255 0 255
255 0 255 0 0 0 255 0 0 0 255 0 255 0 0 0 0 0 255 0 0 0 255 0 255 0 255 0 0 0 0 0 0 0 255 0 255 0 255 0 255 0 0 0 255 0 0 0 255 0 255 0 255 0 255 0 0 0 0 0 255 0 0 0 0 0 255 0 255 0 0 0 0 0 255 0 0 0 255 0 0 0 255 0 0 0 0 0 255 0 255 0 255 0 0 0 0 0 255 0 0 0 255 0 0 0 255 0 0 0 0 0 255 0 0 0 255 0 0 0 255 0 0 0 255 0 0 0 0 0 255 0 0 0 255 0 0 0 255 0 0 0 255 0 0 0 0 0 0 0 255
255 0 255 0 255 0 255 255 255 0 255 0 255 255 255 255 255 255 255 0 255 255 255 0 255 0 255 255 255 255 255 0 255 255 255 0 255 255 255 0 255 0 255 255 255 255 255 0 255 0 255 0 255 0 255 0 255 255 255 255 255 255 255 0 255 0 255 0 255 0 255 255 255 255 255 255 255 255 255 0 255 255 255 0 255 255 255 255 255 0 255 0 255 0 255 255 255 0 255 0 255 255 255 0 255 0 255 0 255 255 255 255 255 0 255 255 255 0 255 0 255 0 255 0 255 255 255 255 255 255 255 0 255 0 255 255 255 0 255 0 255 0 255 0 255 255 255 255 255 255 255
255 0 255 0 255 0 0 0 255 0 0 0 0 0 0 0 255 0 0 0 255 0 0 0 0 0 255 0 0 0 255 0 0 0 0 0 255 0 0 0 255 0 0 0 0 0 255 0 255 0 0 0 255 0 255 0 0 0 255 0 0 0 0 0 255 0 255 0 0 0 255 0 0 0 255 0 0 0 255 0 255 0 0 0 255 0 255 0 0 0 255 0 0 0 0 0 255 0 255 0 255 0 0 0 255 0 255 0 255 0 0 0 255 0 0 0 255 0 255 0 255 0 255 0 0 0 0 0 0 0 0 0 255 0 0 0 255 0 255 0 255 0 0 0 255 0 0 0 0 0 255
255 0 255 255 255 255 255 0 255 0 255 255 255 255 255 255 255 0 255 255 255 0 255 255 255 255 255 0 255 0 255 0 255 255 255 255 255 0 255 255 255 255 255 255 255 0 255 0 255 255 255 255 255 0 255 255 255 0 255 0 255 0 255 255 255 0 255 255 255 255 255 0 255 255 255 0 255 0 255 0 255 0 255 255 255 0 255 0 255 255 255 255 255 255 255 255 255 0 255 255 255 0 255 255 255 0 255 0 255 0 255 0 255 255 255 0 255 0 255 0 255 0 255 255 255 255 255 255 255 255 255 255 255 255 255 0 255 0 255 0 255 255 255 255 255 0 255 255 255 0 255
255 0 255 0 0 0 255 0 255 0 0 0 255 0 0 0 255 0 0 0 0 0 255 0 0 0 0 0 255 0 255 0 255 0 0 0 0 0 255 0 0 0 0 0 255 0 255 0 0 0 0 0 0 0 255 0 0 0 255 0 255 0 0 0 255 0 0 0 0 0 255 0 0 0 0 0 255 0 0 0 255 0 255 0 0 0 255 0 0 0 0 0 0 0 0 0 255 0 0 0 0 0 255 0 0 0 255 0 255 0 255 0 255 0 0 0 255 0 255 0 255 0 0 0 0 0 255 0 0 0 0 0 0 0 0 0 255 0 255 0 0 0 0 0 0 0 255 0 255 0 255
255 0 255 0 255 0 255 0 255 255 255 255 255 0 255 0 255 255 255 255 255 255 255 0 255 255 255 255 255 0 255 255 255 0 255 255 255 255 255 0 255 0 255 255 255 0 255 255 255 255 255 255 255 255 255 0 255 255 255 0 255 255 255 0 255 255 255 255 255 255 255 0 255 255 255 255 255 255 255 255 255 0 255 0 255 0 255 255 255 255 255 255 255 0 255 0 255 255 255 255 255 255 255 0 255 255 255 255 255 0 255 0 255 0 255 255 255 255 255 0 255 255 255 255 255 0 255 0 255 255 255 255 255 255 255 255 255 0 255 255 255 255 255 255 255 255 255 0 255 0 255
255 0 255 0 255 0 0 0 255 0 0 0 0 0 255 0 255 0 0 0 0 0 255 0 255 0 154 0 255 0 0 0 0 0 255 0 0 0 0 0 255 0 255 0 0 0 255 0 255 0 0 0 0 0 255 0 0 0 255 0 0 0 255 0 0 0 0 0 0 0 0 0 0 0 0 0 255 0 0 0 255 0 0 0 255 0 255 0 0 0 0 0 255 0 255 0 0 0 0 0 0 0 255 0 255 0 0 0 0 0 255 0 0 0 0 0 0 0 0 0 0 0 255 0 0 0 255 0 255 0 0 0 0 0 255 0 255 0 0 0 255 0 0 0 0 0 255 0 0 0 255
255 0 255 0 255 255 255 255 255 0 255 255 255 255 255 0 255 0 255 255 255 0 255 0 255 0 255 0 255 255 255 255 255 255 255 0 255 255 255 255 255 0 255 0 255 255 255 0 255 0 255 255 255 0 255 255 255 0 255 255 255 0 255 255 255 255 255 255 255 255 255 255 255 255 255 255 255 0 255 0 255 0 255 255 255 255 255 0 255 255 255 0 255 0 255 255 255 255 255 255 255 0 255 0 255 0 255 255 255 255 255 255 255 255 255 255 255 255 255 255 255 0 255 0 255 255 255 0 255 0 255 255 255 0 255 0 255 255 255 0 255 0 255 255 255 0 255 0 255 255 255
255 0 255 0 0 0 0 0 0 0 255 0 0 0 255 0 0 0 255 0 0 0 255 0 255 0 255 0 255 0 0 0 0 0 0 0 255 0 0 0 0 0 255 0 255 0 0 0 255 0 0 0 255 0 0 0 255 0 0 0 255 0 255 0 0 0 0 0 0 0 0 0 0 0 0 0 255 0 255 0 0 0 255 0 0 0 255 0 255 0 255 0 255 0 0 0 255 0 0 0 255 0 255 0 255 0 0 0 0 0 255 0 0 0 0 0 255 0 255 0 0 0 255 0 0 0 255 0 0 0 255 0 0 0 255 0 0 0 255 0 255 0 255 0 255 0 255 0 255 0 255
255 0 255 255 255 255 255 0 255 255 255 0 255 0 255 255 255 255 255 0 255 0 255 0 255 0 255 0 255 0 255 255 255 255 255 255 255 0 255 255 255 0 255 0 255 255 255 0 255 255 255 0 255 255 255 0 255 255 255 0 255 255 255 0 255 255 255 255 255 0 255 255 255 255 255 0 255 0 255 255 255 255 255 0 255 0 255 0 255 0 255 0 255 255 255 0 255 0 255 0 255 0 255 0 255 255 255 255 255 0 255 0 255 255 255 0 255 0 255 0 255 255 255 255 255 0 255 255 255 255 255 0 255 255 255 0 255 0 255 0 255 0 255 0 255 0 255 0 255 0 255
255 0 0 0 0 0 255 0 0 0 255 0 255 0 0 0 255 0 0 0 255 0 255 0 255 0 255 0 255 0 0 0 0 0 0 0 255 0 255 0 255 0 255 0 0 0 0 0 0 0 255 0 0 0 255 0 0 0 0 0 255 0 0 0 255 0 0 0 255 0 255 0 0 0 0 0 255 0 0 0 255 0 0 0 255 0 0 0 255 0 255 0 255 0 0 0 255 0 255 0 0 0 255 0 0 0 255 0 0 0 255 0 255 0 0 0 255 0 255 0 255 0 0 0 255 0 0 0 255 0 0 0 255 0 0 0 255 0 255 0 0 0 255 0 255 0 255 0 0 0 255
255 0 255 255 255 0 255 255 255 255 255 0 255 255 255 0 255 0 255 255 255 255 255 0 255 0 255 0 255 255 255 255 255 255 255 0 255 0 255 0 255 0 255 255 255 255 255 255 255 0 255 255 255 0 255 255 255 0 255 255 255 0 255 255 255 0 255 0 255 255 255 0 255 255 255 0 255 0 255 255 255 0 255 255 255 255 255 255 255 0 255 0 255 255 255 255 255 0 255 255 255 255 255 0 255 255 255 0 255 255 255 0 255 0 255 255 255 0 255 0 255 0 255 0 255 0 255 255 255 0 255 255 255 255 255 255 255 0 255 255 255 255 255 0 255 0 255 255 255 0 255
255 0 0 0 255 0 0 0 0 0 255 0 255 0 0 0 255 0 0 0 0 0 0 0 255 0 255 0 0 0 255 0 0 0 255 0 255 0 255 0 0 0 0 0 0 0 0 0 255 0 0 0 255 0 0 0 255 0 255 0 0 0 255 0 0 0 255 0 0 0 0 0 255 0 0 0 255 0 255 0 0 0 255 0 0 0 0 0 0 0 0 0 0 0 0 0 0 0 255 0 0 0 255 0 0 0 0 0 255 0 0 0 255 0 255 0 0 0 0 0 255 0 255 0 0 0 255 0 0 0 255 0 0 0 0 0 255 0 0 0 0 0 0 0 0 0 0 0 255 0 255
255 255 255 0 255 255 255 255 255 0 255 0 255 0 255 255 255 255 255 255 255 255 255 255 255 0 255 0 255 255 255 0 255 0 255 0 255 0 255 255 255 255 255 255 255 255 255 255 255 255 255 0 255 255 255 0 255 255 255 0 255 255 255 0 255 255 255 255 255 255 255 255 255 255 255 255 255 0 255 0 255 255 255 255 255 255 255 255 255 255 255 255 255 255 255 255 255 255 255 0 255 0 255 255 255 255 255 255 255 0 255 255 255 0 255 255 255 255 255 255 255 0 255 255 255 255 255 0 255 255 255 0 255 255 255 0 255 255 255 255 255 255 255 255 255 255 255 255 255 0 255
255 0 0 0 0 0 0 0 255 0 0 0 255 0 0 0 0 0 0 0 0 0 0 0 0 0 255 0 0 0 0 0 255 0 0 0 255 0 0 0 0 0 0 0 0 0 0 0 0 0 0 0 0 0 255 0 0 0 0 0 0 0 255 0 0 0 0 0 0 0 0 0 0 0 0 0 0 0 255 0 0 0 0 0 0 0 0 0 0 0 0 0 0 0 0 0 0 0 0 0 255 0 0 0 0 0 0 0 0 0 0 0 255 0 0 0 0 0 0 0 0 0 0 0 0 0 255 0 0 0 0 0 0 0 255 0 0 0 0 0 0 0 0 0 0 0 0 0 0 192 255
255 255 255 255 255 255 255 255 255 255 255 255 255 255 255 255 255 255 255 255 255 255 255 255 255 255 255 255 255 255 255 255 255 255 255 255 255 255 255 255 255 255 255 255 255 255 255 255 255 255 255 255 255 255 255 255 255 255 255 255 255 255 255 255 255 255 255 255 255 255 255 255 255 255 255 255 255 255 255 255 255 255 255 255 255 255 255 255 255 255 255 255 255 255 255 255 255 255 255 255 255 255 255 255 255 255 255 255 255 255 255 255 255 255 255 255 255 255 255 255 255 255 255 255 255 255 255 255 255 255 255 255 255 255 255 255 255 255 255 255 255 255 255 255 255 255 255 255 255 255 255
