P2
# maze.pgm
#
# format:
#        0 = free
#   1..127 = obstacle (incl. countdown, i.e. 14 = obstacle which will disappear in 14 rounds)
#      128 = charging station
#      129 = portal
# 150, 154, 158 = start position of robot 1..3
#      192 = goal
# 200..209 = robot number 1..10
#      255 = wall
#
# width height
21 17
# number of colors
255
# data
255 255 255 255 255 255 255 255 255 255 255 255 255 255 255 255 255 255 255 255 255
255   0   0   0 255   0   0   0   0   0   0   0   0   0   0   0 255   0   0   0 255
255   0 255   0 255 255 255 255 255 255 255 255 255   0 255   0 255   0 255   0 255
255   0 255   0   0   0 255   0   0   0 255   0   0   0 255   0 129   0 255   0 255
255   0 255 255 255   0 255   0 255   0 255 255 255   0 255 255 255 255 255 255 255
255   0   0   0 255   0   0   0 255   0   0   0   0   0   0   0   0   0   0   0 255
255 255 255   0 255 255 255 255 255 255 255 255 255 255 255 255 255 255 255   0 255
255 128 255   0 255   0   0   0 255   0   0   0 255   0   0   0   0   0 255   0 255
255   0 255   0 255   0 255   0 255   0 255 255 255   0 255 255 255   0 255 255 255
255 150 255   0   0   0 255   0   0   0 255   0   0   0   0   0 255 129 255 192 255
255   0 255 255 255 255 255 255 255   0 255   0 255 255 255 255 255   0 255   0 255
255   0 129   0 255   0   0   0   0 158 255   0 255   0   0   0   0   0   0   0 255
255 255 255   0 255   0 255 255 255 255 255 255 255   0 255   0 255   0 255 255 255
255 154 255   0   0   0 255   0   0   0   0   0 255   0 255   0 255   0   0   0 255
255   0 255 255 255   0 255 255 255   0 255   0 255   0 255   0 255   0 255 255 255
255   0   0   0   0   0   0   0   0   0 255   0   0   0 255   0 255   0   0   0 255
255 255 255 255 255 255 255 255 255 255 255 255 255 255 255 255 255 255 255 255 255

