P2
# maze.pgm
#
# format:
#        0 = free
#   1..127 = obstacle (incl. countdown, i.e. 14 = obstacle which will disappear in 14 rounds)
#      128 = charging station
# 150..159 = start position of robot 1..10
#      192 = goal
# 200..209 = robot number 1..10
#      255 = wall
#
# width height
21 17
# number of colors
255
# data
255 255 255 255 255 255 255 255 255 255 255 255 255 255 255 255 255 255 255 255 255
255   0   0   0 255   0   0   0   0   0   0   0   0   0   0   0 255   0   0   0 255
255   0 255   0 255 255 255 255 255 255 255 255 255   0 255   0 255   0 255   0 255
255   0 255   0   0   0 255   0   0   0 255   0   0   0 255   0   0   0 255   0 255
255   0 255 255 255   0 255   0 255   0 255 255 255   0 255 255 255 255 255 255 255
255   0   0   0 255   0   0   0 255   0   0   0   0   0   0   0   0   0   0   0 255
255 255 255   0 255 255 255 255 255 255 255 255 255 255 255 255 255 255 255   0 255
255   0 255   0 255   0   0   0 255   0   0   0 255   0   0   0   0   0 255   0 255
255   0 255   0 255   0 255   0 255   0 255 255 255   0 255 255 255   0 255 255 255
255 150 255   0   0   0 255   0   0   0 255   0   0   0   0   0 255   0 255 192 255
255   0 255 255 255 255 255 255 255   0 255   0 255 255 255 255 255   0 255   0 255
255   0   0   0 255   0   0   0   0 152 255   0 255   0   0   0   0   0   0   0 255
255 255 255   0 255   0 255 255 255 255 255 255 255   0 255   0 255   0 255 255 255
255 151 255   0   0   0 255   0   0   0   0   0 255   0 255   0 255   0   0   0 255
255   0 255 255 255   0 255 255 255   0 255   0 255   0 255   0 255   0 255 255 255
255   0   0   0   0   0   0   0   0   0 255   0   0   0 255   0 255   0   0   0 255
255 255 255 255 255 255 255 255 255 255 255 255 255 255 255 255 255 255 255 255 255

